{
	"asset":{
		"generator":"Khronos glTF Blender I/O v4.2.57",
		"version":"2.0"
	},
	"scene":0,
	"scenes":[
		{
			"name":"Scene",
			"nodes":[
				0,
				1,
				2,
				3,
				4
			]
		}
	],
	"nodes":[
		{
			"name":"Empty",
			"rotation":[
				0.5,
				0.5,
				-0.5,
				0.5
			],
			"scale":[
				78.1523666381836,
				78.1523666381836,
				78.1523666381836
			],
			"translation":[
				-209.50816345214844,
				0,
				0
			]
		},
		{
			"mesh":0,
			"name":"Upper",
			"rotation":[
				-0.7071068286895752,
				0,
				0,
				0.7071068286895752
			],
			"scale":[
				15.222187995910645,
				6.969866752624512,
				6.969866752624512
			],
			"translation":[
				0,
				31.79381561279297,
				173.4408721923828
			]
		},
		{
			"mesh":1,
			"name":"Mag",
			"rotation":[
				-0.7071068286895752,
				0,
				0,
				0.7071068286895752
			],
			"scale":[
				6.969866752624512,
				6.969866752624512,
				6.969866752624512
			],
			"translation":[
				0,
				27.89020347595215,
				173.4408721923828
			]
		},
		{
			"mesh":2,
			"name":"Lower",
			"rotation":[
				-0.7071068286895752,
				0,
				0,
				0.7071068286895752
			],
			"scale":[
				1.2000000476837158,
				1,
				1
			],
			"translation":[
				0,
				31.79381561279297,
				173.4408721923828
			]
		},
		{
			"mesh":3,
			"name":"Upper.001",
			"rotation":[
				-0.7071068286895752,
				0,
				0,
				0.7071068286895752
			],
			"scale":[
				15.222187995910645,
				6.969866752624512,
				6.969866752624512
			],
			"translation":[
				0,
				31.79381561279297,
				173.4408721923828
			]
		}
	],
	"meshes":[
		{
			"name":"Cylinder",
			"primitives":[
				{
					"attributes":{
						"POSITION":0,
						"NORMAL":1,
						"TEXCOORD_0":2
					},
					"indices":3
				}
			]
		},
		{
			"name":"Cylinder.003",
			"primitives":[
				{
					"attributes":{
						"POSITION":4,
						"NORMAL":5,
						"TEXCOORD_0":6
					},
					"indices":7
				}
			]
		},
		{
			"name":"Cylinder.004",
			"primitives":[
				{
					"attributes":{
						"POSITION":8,
						"NORMAL":9,
						"TEXCOORD_0":10
					},
					"indices":11
				}
			]
		},
		{
			"name":"Cylinder.006",
			"primitives":[
				{
					"attributes":{
						"POSITION":12,
						"NORMAL":13,
						"TEXCOORD_0":14
					},
					"indices":15
				}
			]
		}
	],
	"accessors":[
		{
			"bufferView":0,
			"componentType":5126,
			"count":1980,
			"max":[
				1.3394769430160522,
				54.51305389404297,
				4.456009864807129
			],
			"min":[
				-1.569385051727295,
				-2.5725419521331787,
				-4.929235458374023
			],
			"type":"VEC3"
		},
		{
			"bufferView":1,
			"componentType":5126,
			"count":1980,
			"type":"VEC3"
		},
		{
			"bufferView":2,
			"componentType":5126,
			"count":1980,
			"type":"VEC2"
		},
		{
			"bufferView":3,
			"componentType":5123,
			"count":3654,
			"type":"SCALAR"
		},
		{
			"bufferView":4,
			"componentType":5126,
			"count":40,
			"max":[
				1.5053801536560059,
				44.28142547607422,
				0.07090914249420166
			],
			"min":[
				-1.4582663774490356,
				18.02385711669922,
				-1.547086477279663
			],
			"type":"VEC3"
		},
		{
			"bufferView":5,
			"componentType":5126,
			"count":40,
			"type":"VEC3"
		},
		{
			"bufferView":6,
			"componentType":5126,
			"count":40,
			"type":"VEC2"
		},
		{
			"bufferView":7,
			"componentType":5123,
			"count":60,
			"type":"SCALAR"
		},
		{
			"bufferView":8,
			"componentType":5126,
			"count":4256,
			"max":[
				10.547323226928711,
				348.5166320800781,
				-31.28078842163086
			],
			"min":[
				-10.547323226928711,
				-15.878127098083496,
				-99.65558624267578
			],
			"type":"VEC3"
		},
		{
			"bufferView":9,
			"componentType":5126,
			"count":4256,
			"type":"VEC3"
		},
		{
			"bufferView":10,
			"componentType":5126,
			"count":4256,
			"type":"VEC2"
		},
		{
			"bufferView":11,
			"componentType":5123,
			"count":7107,
			"type":"SCALAR"
		},
		{
			"bufferView":12,
			"componentType":5126,
			"count":112,
			"max":[
				-1.0951621532440186,
				37.877323150634766,
				-1.2595092058181763
			],
			"min":[
				-2.6992783546447754,
				37.14560317993164,
				-2.3508381843566895
			],
			"type":"VEC3"
		},
		{
			"bufferView":13,
			"componentType":5126,
			"count":112,
			"type":"VEC3"
		},
		{
			"bufferView":14,
			"componentType":5126,
			"count":112,
			"type":"VEC2"
		},
		{
			"bufferView":15,
			"componentType":5123,
			"count":174,
			"type":"SCALAR"
		}
	],
	"bufferViews":[
		{
			"buffer":0,
			"byteLength":23760,
			"byteOffset":0,
			"target":34962
		},
		{
			"buffer":0,
			"byteLength":23760,
			"byteOffset":23760,
			"target":34962
		},
		{
			"buffer":0,
			"byteLength":15840,
			"byteOffset":47520,
			"target":34962
		},
		{
			"buffer":0,
			"byteLength":7308,
			"byteOffset":63360,
			"target":34963
		},
		{
			"buffer":0,
			"byteLength":480,
			"byteOffset":70668,
			"target":34962
		},
		{
			"buffer":0,
			"byteLength":480,
			"byteOffset":71148,
			"target":34962
		},
		{
			"buffer":0,
			"byteLength":320,
			"byteOffset":71628,
			"target":34962
		},
		{
			"buffer":0,
			"byteLength":120,
			"byteOffset":71948,
			"target":34963
		},
		{
			"buffer":0,
			"byteLength":51072,
			"byteOffset":72068,
			"target":34962
		},
		{
			"buffer":0,
			"byteLength":51072,
			"byteOffset":123140,
			"target":34962
		},
		{
			"buffer":0,
			"byteLength":34048,
			"byteOffset":174212,
			"target":34962
		},
		{
			"buffer":0,
			"byteLength":14214,
			"byteOffset":208260,
			"target":34963
		},
		{
			"buffer":0,
			"byteLength":1344,
			"byteOffset":222476,
			"target":34962
		},
		{
			"buffer":0,
			"byteLength":1344,
			"byteOffset":223820,
			"target":34962
		},
		{
			"buffer":0,
			"byteLength":896,
			"byteOffset":225164,
			"target":34962
		},
		{
			"buffer":0,
			"byteLength":348,
			"byteOffset":226060,
			"target":34963
		}
	],
	"buffers":[
		{
			"byteLength":226408,
			"uri":"smg_of_the_future.bin"
		}
	]
}
