{
	"asset":{
		"generator":"Khronos glTF Blender I/O v4.1.63",
		"version":"2.0"
	},
	"scene":0,
	"scenes":[
		{
			"name":"Scene",
			"nodes":[
				0,
				1,
				2,
				3,
				4,
				5
			]
		}
	],
	"nodes":[
		{
			"name":"Empty",
			"rotation":[
				0.5,
				0.5,
				-0.5,
				0.5
			],
			"scale":[
				4.261501789093018,
				4.261501789093018,
				4.261501789093018
			],
			"translation":[
				-3.493494987487793,
				-0.01567075029015541,
				0.002238678513094783
			]
		},
		{
			"mesh":0,
			"name":"Main",
			"rotation":[
				0.7071068286895752,
				0,
				0,
				0.7071068286895752
			],
			"translation":[
				0,
				-2.4326424598693848,
				9.711320877075195
			]
		},
		{
			"mesh":1,
			"name":"Mag",
			"rotation":[
				0.7071068286895752,
				0,
				0,
				0.7071068286895752
			],
			"translation":[
				0,
				-6.555112361907959,
				9.711320877075195
			]
		},
		{
			"mesh":2,
			"name":"Port",
			"rotation":[
				0.7071068286895752,
				0,
				0,
				0.7071068286895752
			],
			"translation":[
				0,
				-2.4326424598693848,
				9.711320877075195
			]
		},
		{
			"mesh":3,
			"name":"Bolt",
			"rotation":[
				0.7071068286895752,
				0,
				0,
				0.7071068286895752
			],
			"translation":[
				1.032749891281128,
				-2.4326424598693848,
				9.711320877075195
			]
		},
		{
			"mesh":4,
			"name":"Trigger",
			"rotation":[
				0.7071068286895752,
				0,
				0,
				0.7071068286895752
			],
			"translation":[
				0,
				-2.4326424598693848,
				9.711320877075195
			]
		}
	],
	"meshes":[
		{
			"name":"Cylinder.001",
			"primitives":[
				{
					"attributes":{
						"POSITION":0,
						"NORMAL":1,
						"TEXCOORD_0":2,
						"COLOR_0":3
					},
					"indices":4
				}
			]
		},
		{
			"name":"Cylinder.002",
			"primitives":[
				{
					"attributes":{
						"POSITION":5,
						"NORMAL":6,
						"TEXCOORD_0":7,
						"COLOR_0":8
					},
					"indices":9
				}
			]
		},
		{
			"name":"Cylinder.003",
			"primitives":[
				{
					"attributes":{
						"POSITION":10,
						"NORMAL":11,
						"TEXCOORD_0":12,
						"COLOR_0":13
					},
					"indices":14
				}
			]
		},
		{
			"name":"Cylinder.004",
			"primitives":[
				{
					"attributes":{
						"POSITION":15,
						"NORMAL":16,
						"TEXCOORD_0":17,
						"COLOR_0":18
					},
					"indices":19
				}
			]
		},
		{
			"name":"Cylinder.005",
			"primitives":[
				{
					"attributes":{
						"POSITION":20,
						"NORMAL":21,
						"TEXCOORD_0":22,
						"COLOR_0":23
					},
					"indices":24
				}
			]
		}
	],
	"accessors":[
		{
			"bufferView":0,
			"componentType":5126,
			"count":2025,
			"max":[
				1,
				1,
				1.8317604064941406
			],
			"min":[
				-1,
				-23.360450744628906,
				-3.9772989749908447
			],
			"type":"VEC3"
		},
		{
			"bufferView":1,
			"componentType":5126,
			"count":2025,
			"type":"VEC3"
		},
		{
			"bufferView":2,
			"componentType":5126,
			"count":2025,
			"type":"VEC2"
		},
		{
			"bufferView":3,
			"componentType":5126,
			"count":2025,
			"type":"VEC3"
		},
		{
			"bufferView":4,
			"componentType":5123,
			"count":3681,
			"type":"SCALAR"
		},
		{
			"bufferView":5,
			"componentType":5126,
			"count":44,
			"max":[
				0.24168632924556732,
				-10.687302589416504,
				-6.608371257781982
			],
			"min":[
				-0.2416853904724121,
				-19.469287872314453,
				-7.760140895843506
			],
			"type":"VEC3"
		},
		{
			"bufferView":6,
			"componentType":5126,
			"count":44,
			"type":"VEC3"
		},
		{
			"bufferView":7,
			"componentType":5126,
			"count":44,
			"type":"VEC2"
		},
		{
			"bufferView":8,
			"componentType":5126,
			"count":44,
			"type":"VEC3"
		},
		{
			"bufferView":9,
			"componentType":5123,
			"count":78,
			"type":"SCALAR"
		},
		{
			"bufferView":10,
			"componentType":5126,
			"count":164,
			"max":[
				0.5132245421409607,
				-13.298860549926758,
				-2.946681499481201
			],
			"min":[
				-0.5196865200996399,
				-20.561248779296875,
				-4.98156213760376
			],
			"type":"VEC3"
		},
		{
			"bufferView":11,
			"componentType":5126,
			"count":164,
			"type":"VEC3"
		},
		{
			"bufferView":12,
			"componentType":5126,
			"count":164,
			"type":"VEC2"
		},
		{
			"bufferView":13,
			"componentType":5126,
			"count":164,
			"type":"VEC3"
		},
		{
			"bufferView":14,
			"componentType":5123,
			"count":264,
			"type":"SCALAR"
		},
		{
			"bufferView":15,
			"componentType":5126,
			"count":940,
			"max":[
				-1.4808216094970703,
				-18.42192268371582,
				-2.128936529159546
			],
			"min":[
				-2.7075774669647217,
				-19.11395835876465,
				-2.440459966659546
			],
			"type":"VEC3"
		},
		{
			"bufferView":16,
			"componentType":5126,
			"count":940,
			"type":"VEC3"
		},
		{
			"bufferView":17,
			"componentType":5126,
			"count":940,
			"type":"VEC2"
		},
		{
			"bufferView":18,
			"componentType":5126,
			"count":940,
			"type":"VEC3"
		},
		{
			"bufferView":19,
			"componentType":5123,
			"count":1392,
			"type":"SCALAR"
		},
		{
			"bufferView":20,
			"componentType":5126,
			"count":114,
			"max":[
				0.09999967366456985,
				-12.203145980834961,
				-0.271371990442276
			],
			"min":[
				-0.10000000149011612,
				-13.888082504272461,
				-1.483555555343628
			],
			"type":"VEC3"
		},
		{
			"bufferView":21,
			"componentType":5126,
			"count":114,
			"type":"VEC3"
		},
		{
			"bufferView":22,
			"componentType":5126,
			"count":114,
			"type":"VEC2"
		},
		{
			"bufferView":23,
			"componentType":5126,
			"count":114,
			"type":"VEC3"
		},
		{
			"bufferView":24,
			"componentType":5123,
			"count":216,
			"type":"SCALAR"
		}
	],
	"bufferViews":[
		{
			"buffer":0,
			"byteLength":24300,
			"byteOffset":0,
			"target":34962
		},
		{
			"buffer":0,
			"byteLength":24300,
			"byteOffset":24300,
			"target":34962
		},
		{
			"buffer":0,
			"byteLength":16200,
			"byteOffset":48600,
			"target":34962
		},
		{
			"buffer":0,
			"byteLength":24300,
			"byteOffset":64800,
			"target":34962
		},
		{
			"buffer":0,
			"byteLength":7362,
			"byteOffset":89100,
			"target":34963
		},
		{
			"buffer":0,
			"byteLength":528,
			"byteOffset":96464,
			"target":34962
		},
		{
			"buffer":0,
			"byteLength":528,
			"byteOffset":96992,
			"target":34962
		},
		{
			"buffer":0,
			"byteLength":352,
			"byteOffset":97520,
			"target":34962
		},
		{
			"buffer":0,
			"byteLength":528,
			"byteOffset":97872,
			"target":34962
		},
		{
			"buffer":0,
			"byteLength":156,
			"byteOffset":98400,
			"target":34963
		},
		{
			"buffer":0,
			"byteLength":1968,
			"byteOffset":98556,
			"target":34962
		},
		{
			"buffer":0,
			"byteLength":1968,
			"byteOffset":100524,
			"target":34962
		},
		{
			"buffer":0,
			"byteLength":1312,
			"byteOffset":102492,
			"target":34962
		},
		{
			"buffer":0,
			"byteLength":1968,
			"byteOffset":103804,
			"target":34962
		},
		{
			"buffer":0,
			"byteLength":528,
			"byteOffset":105772,
			"target":34963
		},
		{
			"buffer":0,
			"byteLength":11280,
			"byteOffset":106300,
			"target":34962
		},
		{
			"buffer":0,
			"byteLength":11280,
			"byteOffset":117580,
			"target":34962
		},
		{
			"buffer":0,
			"byteLength":7520,
			"byteOffset":128860,
			"target":34962
		},
		{
			"buffer":0,
			"byteLength":11280,
			"byteOffset":136380,
			"target":34962
		},
		{
			"buffer":0,
			"byteLength":2784,
			"byteOffset":147660,
			"target":34963
		},
		{
			"buffer":0,
			"byteLength":1368,
			"byteOffset":150444,
			"target":34962
		},
		{
			"buffer":0,
			"byteLength":1368,
			"byteOffset":151812,
			"target":34962
		},
		{
			"buffer":0,
			"byteLength":912,
			"byteOffset":153180,
			"target":34962
		},
		{
			"buffer":0,
			"byteLength":1368,
			"byteOffset":154092,
			"target":34962
		},
		{
			"buffer":0,
			"byteLength":432,
			"byteOffset":155460,
			"target":34963
		}
	],
	"buffers":[
		{
			"byteLength":155892,
			"uri":"smg2.bin"
		}
	]
}
